Coordinates
version=1
nRows=60
nColumns=12
inDegrees=yes

Units are S.I. units (second, meters, Newtons, ...)
Angles are in degrees

endheader
time	SC_y	SC_z	SC_x	AC_y	AC_z	AC_x	GH_y	GH_z	GH_yy	EL_x	PS_y
       0.0              -25.29          13.02          22.07           60.3         -2.584         -2.043          73.71          79.33          12.68          137.9          102.4
 0.0005907              -25.29          13.02          22.07           60.3         -2.582         -2.045          73.71          79.33          12.66          137.9          102.5
  0.001181               -25.3          13.02          22.07          60.29         -2.581         -2.048           73.7          79.33          12.64          137.9          102.5
  0.001772               -25.3          13.02          22.08          60.29         -2.579         -2.051           73.7          79.33          12.63          137.9          102.5
  0.002363              -25.31          13.02          22.08          60.29         -2.578         -2.054           73.7          79.33          12.61          137.9          102.5
  0.002953              -25.31          13.02          22.09          60.28         -2.576         -2.057           73.7          79.33          12.59          137.9          102.5
  0.003544              -25.31          13.02           22.1          60.28         -2.574         -2.061           73.7          79.33          12.56          137.9          102.5
  0.004135              -25.32          13.02           22.1          60.27         -2.572         -2.065           73.7          79.33          12.54          137.9          102.5
  0.004726              -25.33          13.03          22.11          60.27          -2.57         -2.069           73.7          79.33          12.51          137.9          102.5
  0.005316              -25.33          13.03          22.12          60.27         -2.568         -2.073          73.69          79.33          12.49          137.9          102.5
  0.005907              -25.34          13.03          22.12          60.26         -2.565         -2.078          73.69          79.33          12.46          137.9          102.5
  0.006498              -25.35          13.03          22.13          60.25         -2.562         -2.083          73.69          79.34          12.43          137.9          102.5
  0.007088              -25.35          13.03          22.14          60.25          -2.56         -2.088          73.69          79.34          12.39          137.9          102.5
  0.007679              -25.36          13.03          22.15          60.24         -2.557         -2.094          73.68          79.34          12.36          137.9          102.5
   0.00827              -25.37          13.03          22.16          60.23         -2.553         -2.101          73.68          79.34          12.32          137.9          102.5
   0.00886              -25.38          13.04          22.17          60.23         -2.549         -2.108          73.68          79.34          12.27          137.9          102.5
  0.009451              -25.39          13.04          22.18          60.22         -2.546         -2.115          73.68          79.34          12.23          137.9          102.6
   0.01004               -25.4          13.04           22.2          60.21         -2.541         -2.123          73.67          79.34          12.18          137.9          102.6
   0.01063              -25.41          13.04          22.21           60.2         -2.536         -2.132          73.67          79.35          12.12          137.9          102.6
   0.01122              -25.43          13.05          22.23          60.19         -2.531         -2.142          73.66          79.35          12.06          137.9          102.6
   0.01181              -25.44          13.05          22.25          60.18         -2.526         -2.153          73.66          79.35          11.99          137.9          102.6
    0.0124              -25.46          13.05          22.27          60.16         -2.519         -2.165          73.65          79.35          11.92          137.9          102.6
     0.013              -25.48          13.06          22.29          60.15         -2.512         -2.178          73.65          79.35          11.84          137.9          102.7
   0.01359               -25.5          13.06          22.31          60.13         -2.505         -2.192          73.64          79.36          11.75          137.9          102.7
   0.01418              -25.52          13.07          22.34          60.11         -2.496         -2.208          73.64          79.36          11.65          137.9          102.7
   0.01477              -25.54          13.07          22.37          60.09         -2.487         -2.226          73.63          79.36          11.54          137.9          102.7
   0.01536              -25.57          13.08           22.4          60.07         -2.476         -2.247          73.62          79.37          11.41          137.9          102.8
   0.01595               -25.6          13.08          22.44          60.05         -2.464         -2.269          73.61          79.37          11.27          137.9          102.8
   0.01654              -25.64          13.09          22.48          60.02         -2.451         -2.295           73.6          79.38          11.12          137.9          102.8
   0.01713              -25.68           13.1          22.53          59.99         -2.435         -2.324          73.59          79.38          10.94          137.9          102.9
   0.01772              -25.72          13.11          22.58          59.95         -2.418         -2.357          73.57          79.39          10.73          137.9          102.9
   0.01831              -25.78          13.12          22.64          59.91         -2.398         -2.395          73.55           79.4          10.49          137.9          103.0
    0.0189              -25.84          13.13          22.72          59.86         -2.375         -2.439          73.54           79.4          10.22          137.9          103.1
   0.01949              -25.91          13.15           22.8           59.8         -2.348          -2.49          73.51          79.41          9.906          137.9          103.1
   0.02008              -25.99          13.17           22.9          59.73         -2.316          -2.55          73.49          79.43          9.537          137.9          103.2
   0.02067              -26.09          13.19          23.01          59.66         -2.279          -2.62          73.46          79.44            9.1          137.8          103.3
   0.02126               -26.2          13.21          23.15          59.56         -2.235         -2.704          73.42          79.45          8.582          137.8          103.5
   0.02186              -26.34          13.24          23.32          59.45         -2.182         -2.804          73.38          79.47          7.961          137.8          103.6
   0.02245              -26.51          13.28          23.52          59.32         -2.118         -2.926          73.32           79.5          7.209          137.8          103.8
   0.02304              -26.71          13.32          23.76          59.15         -2.039         -3.074          73.26          79.53          6.291          137.8          104.0
   0.02363              -26.96          13.37          24.06          58.95         -1.943         -3.257          73.18          79.56          5.158          137.8          104.3
   0.02422              -27.28          13.44          24.43          58.69         -1.822         -3.485          73.08           79.6          3.745          137.7          104.7
   0.02481              -27.68          13.53          24.91          58.37         -1.671         -3.773          72.96          79.66          1.965          137.7          105.1
    0.0254              -28.18          13.63          25.51          57.97         -1.478         -4.138           72.8          79.73        -0.2979          137.7          105.7
   0.02599              -28.82          13.77          26.27          57.45         -1.231         -4.606           72.6          79.82         -3.194          137.6          106.4
   0.02658              -29.65          13.95          27.26          56.78        -0.9137         -5.206          72.34          79.93         -6.911          137.5          107.3
   0.02717              -30.71          14.17          28.52          55.93        -0.5089         -5.973          72.01          80.08         -11.66          137.5          108.5
   0.02776              -32.04          14.46           30.1          54.85      3.044e-05         -6.937          71.59          80.26         -17.63          137.4          110.0
   0.02835              -33.66           14.8          32.03          53.55         0.6203         -8.112          71.08          80.49          -24.9          137.2          111.8
   0.02894              -35.54           15.2          34.27          52.03          1.339         -9.474          70.49          80.75         -33.34          137.1          113.9
   0.02953              -37.57          15.64          36.69          50.39          2.118         -10.95          69.85          81.03         -42.47          136.9          116.2
   0.03013              -39.61          16.07          39.11          48.75          2.896         -12.42          69.22          81.31          -51.6          136.7          118.5
   0.03072              -41.48          16.47          41.34          47.23          3.615         -13.79          68.63          81.57         -60.03          136.6          120.6
   0.03131              -43.11          16.81          43.27          45.93          4.235         -14.96          68.12           81.8          -67.3          136.4          122.4
    0.0319              -44.44           17.1          44.85          44.85          4.744         -15.92           67.7          81.98         -73.27          136.3          123.9
   0.03249              -45.49          17.32          46.11           44.0          5.149         -16.69          67.37          82.13         -78.02          136.2          125.1
   0.03308              -46.32           17.5           47.1          43.33          5.466         -17.29          67.11          82.24         -81.74          136.2          126.0
   0.03367              -46.97          17.64          47.87          42.81          5.713         -17.76          66.91          82.33         -84.63          136.1          126.7
   0.03426              -47.47          17.75          48.47          42.41          5.906         -18.13          66.75           82.4          -86.9          136.1          127.3
   0.03485              -47.87          17.83          48.94          42.09          6.058         -18.41          66.63          82.46         -88.68          136.0          127.7
